<mxfile host="app.diagrams.net" modified="2020-12-28T09:01:45.345Z" agent="5.0 (Macintosh; Intel Mac OS X 10_15_7) AppleWebKit/537.36 (KHTML, like Gecko) Chrome/87.0.4280.88 Safari/537.36" etag="3dozQ0cN2yywEabR4cJF" version="14.1.2" type="github">
  <diagram id="nbcYETpSiCu8c0kYlOHl" name="第 1 页">
    <mxGraphModel dx="1722" dy="943" grid="1" gridSize="10" guides="1" tooltips="1" connect="1" arrows="1" fold="1" page="1" pageScale="1" pageWidth="827" pageHeight="1169" math="0" shadow="0">
      <root>
        <mxCell id="0" />
        <mxCell id="1" parent="0" />
        <mxCell id="SmXa1VSsDeNrPjMsGN2Q-2" value="" style="rounded=0;whiteSpace=wrap;html=1;" vertex="1" parent="1">
          <mxGeometry x="130" y="70" width="140" height="260" as="geometry" />
        </mxCell>
        <mxCell id="SmXa1VSsDeNrPjMsGN2Q-7" style="edgeStyle=orthogonalEdgeStyle;rounded=0;orthogonalLoop=1;jettySize=auto;html=1;" edge="1" parent="1" source="SmXa1VSsDeNrPjMsGN2Q-3">
          <mxGeometry relative="1" as="geometry">
            <mxPoint x="380" y="180" as="targetPoint" />
          </mxGeometry>
        </mxCell>
        <mxCell id="SmXa1VSsDeNrPjMsGN2Q-3" value="分享按钮" style="rounded=1;whiteSpace=wrap;html=1;" vertex="1" parent="1">
          <mxGeometry x="163.75" y="170" width="72.5" height="20" as="geometry" />
        </mxCell>
        <mxCell id="SmXa1VSsDeNrPjMsGN2Q-5" value="业务方H5" style="text;html=1;strokeColor=none;fillColor=none;align=center;verticalAlign=middle;whiteSpace=wrap;rounded=0;" vertex="1" parent="1">
          <mxGeometry x="160" y="100" width="70" height="10" as="geometry" />
        </mxCell>
        <mxCell id="SmXa1VSsDeNrPjMsGN2Q-8" value="点击" style="text;html=1;strokeColor=none;fillColor=none;align=center;verticalAlign=middle;whiteSpace=wrap;rounded=0;" vertex="1" parent="1">
          <mxGeometry x="300" y="150" width="40" height="20" as="geometry" />
        </mxCell>
        <mxCell id="SmXa1VSsDeNrPjMsGN2Q-13" value="调用share/init&lt;br&gt;指定业务方subBiz,透传参数extTokenStoreParams和&lt;br&gt;extTransientParams,shareObjectId.&lt;br&gt;服务端返回分享渠道信息，客户端弹出分享弹窗" style="rounded=0;whiteSpace=wrap;html=1;align=left;" vertex="1" parent="1">
          <mxGeometry x="390" y="140" width="300" height="80" as="geometry" />
        </mxCell>
        <mxCell id="SmXa1VSsDeNrPjMsGN2Q-14" value="" style="rounded=0;whiteSpace=wrap;html=1;" vertex="1" parent="1">
          <mxGeometry x="130" y="260" width="140" height="70" as="geometry" />
        </mxCell>
        <mxCell id="SmXa1VSsDeNrPjMsGN2Q-15" value="分享面板" style="text;html=1;strokeColor=none;fillColor=none;align=center;verticalAlign=middle;whiteSpace=wrap;rounded=0;" vertex="1" parent="1">
          <mxGeometry x="150" y="280" width="50" height="10" as="geometry" />
        </mxCell>
        <mxCell id="SmXa1VSsDeNrPjMsGN2Q-17" style="edgeStyle=orthogonalEdgeStyle;rounded=0;orthogonalLoop=1;jettySize=auto;html=1;" edge="1" parent="1" source="SmXa1VSsDeNrPjMsGN2Q-16" target="SmXa1VSsDeNrPjMsGN2Q-18">
          <mxGeometry relative="1" as="geometry">
            <mxPoint x="380" y="295" as="targetPoint" />
          </mxGeometry>
        </mxCell>
        <mxCell id="SmXa1VSsDeNrPjMsGN2Q-26" style="edgeStyle=orthogonalEdgeStyle;rounded=0;orthogonalLoop=1;jettySize=auto;html=1;" edge="1" parent="1" source="SmXa1VSsDeNrPjMsGN2Q-16">
          <mxGeometry relative="1" as="geometry">
            <mxPoint x="235.00000000000023" y="380" as="targetPoint" />
          </mxGeometry>
        </mxCell>
        <mxCell id="SmXa1VSsDeNrPjMsGN2Q-16" value="面对面" style="ellipse;whiteSpace=wrap;html=1;aspect=fixed;" vertex="1" parent="1">
          <mxGeometry x="210" y="270" width="50" height="50" as="geometry" />
        </mxCell>
        <mxCell id="SmXa1VSsDeNrPjMsGN2Q-18" value="分享渠道中若有面对面扫码，会在面对面扫码渠道中下发actionUrl, 形如kwaishare://h5?url=encode(面对面扫码页url?&lt;span style=&quot;color: rgb(79 , 193 , 255) ; background-color: rgb(30 , 30 , 30) ; font-family: &amp;#34;menlo&amp;#34; , &amp;#34;monaco&amp;#34; , &amp;#34;courier new&amp;#34; , monospace&quot;&gt;shareExtId&lt;/span&gt;&lt;span&gt;),点击时客户端通过新打开webview的形式打开该链接&lt;/span&gt;" style="rounded=0;whiteSpace=wrap;html=1;align=left;" vertex="1" parent="1">
          <mxGeometry x="354" y="260" width="296" height="70" as="geometry" />
        </mxCell>
        <mxCell id="SmXa1VSsDeNrPjMsGN2Q-20" value="" style="rounded=0;whiteSpace=wrap;html=1;" vertex="1" parent="1">
          <mxGeometry x="215" y="670" width="175" height="260" as="geometry" />
        </mxCell>
        <mxCell id="SmXa1VSsDeNrPjMsGN2Q-21" value="二维码" style="rounded=1;whiteSpace=wrap;html=1;align=center;" vertex="1" parent="1">
          <mxGeometry x="230" y="680" width="125" height="120" as="geometry" />
        </mxCell>
        <mxCell id="SmXa1VSsDeNrPjMsGN2Q-22" value="通用面对面扫码页" style="text;html=1;strokeColor=none;fillColor=none;align=center;verticalAlign=middle;whiteSpace=wrap;rounded=0;" vertex="1" parent="1">
          <mxGeometry x="236.25" y="640" width="100" height="10" as="geometry" />
        </mxCell>
        <mxCell id="SmXa1VSsDeNrPjMsGN2Q-23" value="" style="endArrow=classic;html=1;" edge="1" parent="1">
          <mxGeometry width="50" height="50" relative="1" as="geometry">
            <mxPoint x="450" y="790" as="sourcePoint" />
            <mxPoint x="540" y="790" as="targetPoint" />
          </mxGeometry>
        </mxCell>
        <mxCell id="SmXa1VSsDeNrPjMsGN2Q-24" value="页面初始化&lt;br&gt;1.通过shareExtId调用&lt;span style=&quot;font-family: &amp;#34;menlo&amp;#34; , &amp;#34;monaco&amp;#34; , &amp;#34;courier new&amp;#34; , monospace ; color: rgb(206 , 145 , 120)&quot;&gt;/rest/zt/share/w/getExtParams?shareExtId=&lt;/span&gt;&lt;span style=&quot;font-family: &amp;#34;menlo&amp;#34; , &amp;#34;monaco&amp;#34; , &amp;#34;courier new&amp;#34; , monospace ; color: rgb(86 , 156 , 214)&quot;&gt;${&lt;/span&gt;&lt;span style=&quot;font-family: &amp;#34;menlo&amp;#34; , &amp;#34;monaco&amp;#34; , &amp;#34;courier new&amp;#34; , monospace ; color: rgb(79 , 193 , 255)&quot;&gt;shareExtId&lt;/span&gt;&lt;span style=&quot;font-family: &amp;#34;menlo&amp;#34; , &amp;#34;monaco&amp;#34; , &amp;#34;courier new&amp;#34; , monospace ; color: rgb(86 , 156 , 214)&quot;&gt;}，得到kpn,subBiz,shareObjectId和透传的extTokenStoreParams,extTransientParams&lt;br&gt;2.用以上获取到的值调用&lt;/span&gt;&lt;span style=&quot;color: rgb(206 , 145 , 120) ; background-color: rgb(30 , 30 , 30) ; font-family: &amp;#34;menlo&amp;#34; , &amp;#34;monaco&amp;#34; , &amp;#34;courier new&amp;#34; , monospace&quot;&gt;/rest/zt/share/w/any 得到页面渲染需要的内容&lt;/span&gt;" style="rounded=0;whiteSpace=wrap;html=1;align=left;" vertex="1" parent="1">
          <mxGeometry x="254" y="920" width="320" height="230" as="geometry" />
        </mxCell>
        <mxCell id="SmXa1VSsDeNrPjMsGN2Q-25" value="通过shareExtId调用&lt;span style=&quot;font-family: &amp;#34;menlo&amp;#34; , &amp;#34;monaco&amp;#34; , &amp;#34;courier new&amp;#34; , monospace ; color: rgb(206 , 145 , 120)&quot;&gt;/rest/zt/share/w/getExtParams?shareExtId=&lt;/span&gt;&lt;span style=&quot;font-family: &amp;#34;menlo&amp;#34; , &amp;#34;monaco&amp;#34; , &amp;#34;courier new&amp;#34; , monospace ; color: rgb(86 , 156 , 214)&quot;&gt;${&lt;/span&gt;&lt;span style=&quot;font-family: &amp;#34;menlo&amp;#34; , &amp;#34;monaco&amp;#34; , &amp;#34;courier new&amp;#34; , monospace ; color: rgb(79 , 193 , 255)&quot;&gt;shareExtId&lt;/span&gt;&lt;span style=&quot;font-family: &amp;#34;menlo&amp;#34; , &amp;#34;monaco&amp;#34; , &amp;#34;courier new&amp;#34; , monospace ; color: rgb(86 , 156 , 214)&quot;&gt;}，得到kpn,subBiz,shareObjectId和透传的extTokenStoreParams,extTransientParams&lt;/span&gt;" style="rounded=0;whiteSpace=wrap;html=1;align=left;" vertex="1" parent="1">
          <mxGeometry x="544" y="750" width="120" height="60" as="geometry" />
        </mxCell>
        <mxCell id="SmXa1VSsDeNrPjMsGN2Q-28" style="edgeStyle=orthogonalEdgeStyle;rounded=0;orthogonalLoop=1;jettySize=auto;html=1;" edge="1" parent="1" source="SmXa1VSsDeNrPjMsGN2Q-27" target="SmXa1VSsDeNrPjMsGN2Q-29">
          <mxGeometry relative="1" as="geometry">
            <mxPoint x="450" y="420" as="targetPoint" />
          </mxGeometry>
        </mxCell>
        <mxCell id="SmXa1VSsDeNrPjMsGN2Q-30" style="edgeStyle=orthogonalEdgeStyle;rounded=0;orthogonalLoop=1;jettySize=auto;html=1;" edge="1" parent="1" source="SmXa1VSsDeNrPjMsGN2Q-27">
          <mxGeometry relative="1" as="geometry">
            <mxPoint x="238.75000000000023" y="510" as="targetPoint" />
          </mxGeometry>
        </mxCell>
        <mxCell id="SmXa1VSsDeNrPjMsGN2Q-27" value="页面参数shareExtId是否存在" style="rhombus;whiteSpace=wrap;html=1;align=center;" vertex="1" parent="1">
          <mxGeometry x="127.5" y="380" width="222.5" height="80" as="geometry" />
        </mxCell>
        <mxCell id="SmXa1VSsDeNrPjMsGN2Q-29" value="错误兜底页" style="text;html=1;strokeColor=none;fillColor=none;align=center;verticalAlign=middle;whiteSpace=wrap;rounded=0;" vertex="1" parent="1">
          <mxGeometry x="440" y="415" width="100" height="10" as="geometry" />
        </mxCell>
        <mxCell id="SmXa1VSsDeNrPjMsGN2Q-31" value="是" style="text;html=1;strokeColor=none;fillColor=none;align=center;verticalAlign=middle;whiteSpace=wrap;rounded=0;" vertex="1" parent="1">
          <mxGeometry x="250" y="470" width="40" height="20" as="geometry" />
        </mxCell>
        <mxCell id="SmXa1VSsDeNrPjMsGN2Q-32" value="否" style="text;html=1;strokeColor=none;fillColor=none;align=center;verticalAlign=middle;whiteSpace=wrap;rounded=0;" vertex="1" parent="1">
          <mxGeometry x="370" y="395" width="40" height="20" as="geometry" />
        </mxCell>
      </root>
    </mxGraphModel>
  </diagram>
</mxfile>
